# xmcd CD database file
#
# Track frame offsets:
#	150
#	29353
#	51510
#	76158
#	102849
#	127946
#	155252
#	180681
#	208647
#	227747
#	252443
#	266555
#
# Disc length: 3831 seconds
#
# Revision: 0
# Processed by: cddbd v1.5.2PL0 Copyright (c) Steve Scherf et al.
# Submitted via: CDex 1.51
#
DISCID=9b0ef50c
DTITLE=Slim Man  - Bella Mia
DYEAR=1900
DGENRE=Jazz
TTITLE0=Middle Of Nowhere
TTITLE1=Angela
TTITLE2=Bella Mia
TTITLE3=Secret Rendezvous
TTITLE4=Don´t Say Goodbye
TTITLE5=Faith In Us
TTITLE6=A Night Like This
TTITLE7=Other Side Of Love
TTITLE8=Overdose Of You
TTITLE9=Weeping Willow
TTITLE10=End Of The Rainbow
TTITLE11=Beginning
EXTD=
EXTT0=
EXTT1=
EXTT2=
EXTT3=
EXTT4=
EXTT5=
EXTT6=
EXTT7=
EXTT8=
EXTT9=
EXTT10=
EXTT11=
PLAYORDER=
